<svg xmlns="http://www.w3.org/2000/svg" xml:space="preserve" style="fill-rule:evenodd;clip-rule:evenodd;stroke-linejoin:round;stroke-miterlimit:2" viewBox="0 0 3510 3586">
    <rect width="100%" height="100%" fill="#a7b3c9"/>

    <path d="M1068.3 302.2a585 585 0 0 1 150 54.2 329 329 0 0 1 131.2 216.7q27.2 237.4 2.1 475a41 41 0 0 1-4.1-18.8q18-221.7-2.1-443.7Q1316.2 377.2 1114 321a958 958 0 0 0-187.5-29.2 4086 4086 0 0 0-350-4.2 1008 1008 0 0 0-170.8 18.8 22 22 0 0 0-12.5-4.2A806 806 0 0 1 514 283.5q278-18.3 554.2 18.7" style="fill:#f1f0eb"/>
    <path d="M1410 552.2q.8 4.2-2.1 8.4-6.2-34.6-20.9-66.7a48 48 0 0 1-14.5 18.7l4.1 4.2a95 95 0 0 1-25 8.3q8.3 16.7 16.7 2.1l8.3 8.4 4.2-8.4q12.5 14.6 20.8 31.3-10 2-18.7 6.2-2.5-7 2-14.6-4.5-17.4-10.4-2-12.4-8.4-16.6 8.3l-8.4-25q45.9 281.3 0 562.5-2.9-4.2-2-8.3 1.2-18.7 4.1-37.5 25-237.6-2-475a329 329 0 0 0-131.3-216.7q47 23 77 66.7l31.3 54.1 25 12.5q5.8-.6 10.4-4.1 6-13.8 14.6-25a350 350 0 0 0-212.5-193.8 925 925 0 0 0-237.5-41.7A6366 6366 0 0 0 535 219q206.3-9.1 412.5 2a687 687 0 0 1 300 79.2 367 367 0 0 1 162.5 252" style="fill:#0c1517"/>
    <path d="M1351.6 1048q-3 18.8-4.1 37.6-72.6 355-437.5 381.2-21 5.4-20.9 27 14.6 69 25 137.6l-4.1 8.3a283 283 0 0 1-66.7-43.7 812 812 0 0 1-93.8-102.1q-9-6.2-18.7-10.4-190.5-1.3-375-50-35.7-10.6-66.7-31.3a425 425 0 0 1-177-233.3 1313 1313 0 0 1-33.4-512.5 462 462 0 0 1 89.6-237.5 263 263 0 0 1 83.3-70.8 424 424 0 0 1 141.7-45.9q6.3 0 12.5 4.2a1008 1008 0 0 1 170.8-18.8 4086 4086 0 0 1 350 4.2 975 975 0 0 1 187.5 29.2q202.1 56.3 231.3 264.6 20 222 2 443.7 0 10.5 4.2 18.8" style="fill:#fbf2dd"/>
    <path d="M339.1 460.6q-2.4 14.6-8.3-2.1-39.6-3.4-79.2-2.1A4925 4925 0 0 0 310 739.7q-3 6.3-8.4 0-15-81.2-33.3-162.5a719 719 0 0 1-23-120.8l6.3-6.3a377 377 0 0 1 79.2 0q5.3 4.3 8.3 10.5" style="fill:#070b0c"/>
    <path d="M664.1 631.4a4780 4780 0 0 0-39.6 187.5 71 71 0 0 1-14.5 35.4 275 275 0 0 1-81.3-2q-27-102.6-56.2-204.2a4830 4830 0 0 0-48 191.6q-2.9 9-10.4 14.6a377 377 0 0 1-79.1 0l-6.3-6.2-27-108.4q5.3 6.3 8.3 0a4924 4924 0 0 1-58.4-283.3q39.6-1.2 79.2 2 5.9 16.8 8.3 2.2 21.8 115.8 41.7 233.3l48-225c.9-7.3 4.6-14 10.3-18.8q31.3-4 62.5 0l6.3 6.3q31.6 115.8 56.2 233.3 22.5-116.6 43.8-233.3l6.2-6.3q37.5-4 75 0 8.4 6.3 8.4 16.7z" style="fill:#0c1e21"/>
    <path d="M789.1 806.4q-2 30-25 48a268 268 0 0 1-66.6 0 21 21 0 0 1-8.4-18.8 37729 37729 0 0 1 91.7-379.2l12.5-6.3a601 601 0 0 1 100 0q6.3 2.6 10.4 6.3 49.1 187.5 93.8 377 .8 12.6-8.4 21a268 268 0 0 1-66.6 0q-11.3-3.5-14.6-14.7-5.9-26.4-14.6-52a552 552 0 0 0-95.8 0 21 21 0 0 0-8.4 18.7" style="fill:#0c1d20"/>
    <path d="M1218.3 523a9 9 0 0 1-6.3-4.1q-3.3-31.2-2-62.5h-175a16385 16385 0 0 0 2 387.5c22 5.5 44.8 5.5 66.7 0l4.2-137.5q2.4-5.9 6.2-10.4 39.6-3.4 79.2-2.1 0-30.9 8.3-58.3 2 31.2-4.1 60.4a290 290 0 0 1-83.4 6.2q1.3 71-2 141.7a48 48 0 0 1-41.7 12.5 48 48 0 0 1-41.7-12.5 9010 9010 0 0 1 0-387.5q5-3.7 10.4-6.3a1752 1752 0 0 1 170.9 0l6.2 6.3a486 486 0 0 1 2.1 66.7" style="fill:#060c0f"/>
    <path d="M1218.3 523c-2 5.5-6.8 9.4-12.5 10.5q-45.8 3.3-91.7 2v79.2q35.4-1.2 70.9 2.1a22 22 0 0 1 16.6 18.8 200 200 0 0 0-8.3 58.3q-39.6-1.2-79.2 2a58 58 0 0 0-6.2 10.5l-4.2 137.5a138 138 0 0 1-66.7 0q-3.3-193.7-2-387.5h175q-1.3 31.3 2 62.5a9 9 0 0 0 6.3 4.2" style="fill:#0c1f23"/>
    <path d="M780.8 456.4a37777 37777 0 0 0-91.7 379.2 21 21 0 0 0 8.4 18.7q33.3 4.2 66.6 0 23-18 25-48 8.4 32.6-20.8 52.2a200 200 0 0 1-87.5-6.3 25 25 0 0 0-14.6 12.5c-3-5.5-8.4-9.3-14.6-10.4q13.8-2.5 8.4-12.5 9.5-2.5 6.2-10.4a157 157 0 0 1-39.6 0q0 16.6-12.5 27a156 156 0 0 1-87.5 0 67 67 0 0 0-10.4-14.5q-18-84.3-43.7-166.7l-45.9 175a58 58 0 0 1-16.6 10.4q-37.5 4.2-75 0-6.2-10-14.6-2a6490 6490 0 0 0-54.2-258.4 27 27 0 0 1 2.1-25 4214 4214 0 0 1 33.3 162.5l27.1 108.4 6.3 6.2a377 377 0 0 0 79.1 0q7.6-5.6 10.4-14.6a4827 4827 0 0 1 48-191.6q29.1 101.6 56.2 204.1 40.4 7 81.3 2.1a66 66 0 0 0 14.5-35.4q18-94.2 39.6-187.5 4.2 3.8 4.2 10.4a2721 2721 0 0 0-35.4 185.4q4.1-24.9 8.3 0 2.5-13.3 12.5-8.3l10.4-14.6-8.3-8.3q5.4-12 14.6-6.3a79 79 0 0 0 12.5-20.8q2 13 8.3 25 40.4-160 79.2-320.8c.4-7 4.4-13.2 10.4-16.7" style="fill:#f4f1e6"/>
    <path d="M1418.3 589.7q19.2 252.6-8.3 504.2-4.2-6.2-4.2-14.6 27-234.1 8.3-468.7 0-11.7 4.2-20.9" style="fill:#050708"/>
    <path d="M168.3 418.9a458 458 0 0 0-89.6 237.5 1313 1313 0 0 0 33.3 512.5 425 425 0 0 0 177.1 233.3c-62.6-33-114-83.7-147.9-145.8a797 797 0 0 1-70.8-262.5 1358 1358 0 0 1 4.1-358.3c9.3-61.3 29-120.5 58.4-175a125 125 0 0 1 35.4-41.7" style="fill:#ecece7"/>
    <path d="M1976.6 1410.6q-90.4 64.6-179.1 133.3a900 900 0 0 0-212.5-35.4 458 458 0 0 1-41.7-81.3q10.1 0 18.7-12.5 18.8-25 31.3-54.1a756 756 0 0 0 70.8-320.9 354 354 0 0 1 100 302.1q2.1 60.4 58.4 41.7c46.3-37 77.4-89.6 87.5-148a825 825 0 0 1 60.4-162.4 6965 6965 0 0 0 112.5-170.9q24.9-56.3 37.5-112.5-3-31.2 6.2-62.5a75 75 0 0 0-8.3-14.6 96 96 0 0 0 2-47.9q-12-54-20.8-108.3 236.7 190.8 131.3 483.3l-8.3 12.5a433 433 0 0 0-6.3 266.7 763 763 0 0 1 79.2 166.7 357 357 0 0 1-14.6 127q6.3 70.5 70.8 41.7c43.8-35 76.4-82.1 93.8-135.4q12.5-58.4 18.7-116.7-13.7-102 16.7-200 11.7-37.5 27-75A643 643 0 0 1 2676.7 919q16.3-3.4 0 10.4 3.3 3.5 4.2 8.3a546 546 0 0 0-23 368.8q29.7 77.5 60.5 154.2a208 208 0 0 1 16.7 62.5c5.6 41.5 5 83.6-2.1 125a2238 2238 0 0 1-52.1 125 241 241 0 0 0-14.6 129.1q18.7 53.8 73 35.4 34-24.5 60.3-47.9a558 558 0 0 0 77.1-204.1 477 477 0 0 1 20.9-87.5q12.5-40.5 31.2-79.2a429 429 0 0 1 181.3-177q-35.7 73.7-60.5 152a450 450 0 0 0 31.3 304.2 159 159 0 0 0 20.8 50l-4.1 8.3a400 400 0 0 0-129.2-62.5q-48.8 6.3-35.4 54.2 45 62.5 66.6 137.5a271 271 0 0 1-85.4 252 100 100 0 0 1-50 20.9 588 588 0 0 0-245.8-112.5l-104.2-18.8q2.1-4.2 8.4-6.2a238 238 0 0 1-20.9-31.3q7.2-9.1-6.2-12.5-9.3-64.2-4.2-129.1a463 463 0 0 0 23-104.2q8.3-68.7-2.2-137.5a321 321 0 0 0-12.5 41.7A4549 4549 0 0 0 2383 1944a213 213 0 0 0 2 137.5q-8.7-1.3-16.6-6.3a4954 4954 0 0 1-250-227 712 712 0 0 0 85.4-300q4.2-54.3 0-108.4a187 187 0 0 0-20.8-66.6 79 79 0 0 0-77.1-18.8 702 702 0 0 0-129.2 56.3" style="fill:#f78520"/>
    <path d="M535 218.9q195-3 391.6 6.2 121.3 5.5 237.5 41.7a350 350 0 0 1 212.5 193.8q-8.9 11.4-14.6 25-4.6 3.5-10.4 4.1l-25-12.5-31.2-54.1a196 196 0 0 0-77.1-66.7q-71.7-37.4-150-54.2 4.2.9 8.3-2-105.2-20.5-212.5-25a5705 5705 0 0 0-308.3 0 856 856 0 0 0-279.2 54.1l-25 12.5q-7.5 4.2 0 6.3a263 263 0 0 0-83.3 70.8 129 129 0 0 0-35.4 41.7 542 542 0 0 0-58.4 175 1358 1358 0 0 0-4.1 358.3 797 797 0 0 0 70.8 262.5 358 358 0 0 0 148 145.8c20.5 13.7 43 24.3 66.6 31.3a1492 1492 0 0 0 375 50q9.6 4.2 18.7 10.4a815 815 0 0 0 93.8 102q30.2 26.7 66.7 43.8l4.1-8.3q-10.4-68.7-25-137.5 0-21.8 20.9-27 365-26.4 437.5-381.3-.9 4 2 8.3 45.9-281.3 0-562.5l8.4 25q4.2-16.7 16.6-8.3 6.3-15.4 10.5 2c-3 4.3-3.7 9.7-2.1 14.6q8.7-4.1 18.7-6.2a153 153 0 0 0-20.8-31.3l-4.2 8.4-8.3-8.4q-8.3 14.5-16.7-2a95 95 0 0 0 25-8.4l-4.1-4.2q9.6-7.5 14.5-18.7a281 281 0 0 1 20.9 66.7q3-4.2 2-8.4 7.5 18 8.4 37.5-4.2 9.1-4.2 20.9a2404 2404 0 0 1-8.3 468.7q0 8.7 4.2 14.6a79 79 0 0 0-4.2 25l-12.5 50q-102.5 318.8-437.5 350a1352 1352 0 0 0 18.7 129.2 127 127 0 0 1 0 45.8q-16.2 30-47.9 16.7a200 200 0 0 1-91.6-43.8 916 916 0 0 1-129.2-125 1731 1731 0 0 1-316.7-33.3q-280-71.7-352-352.1A1533 1533 0 0 1 3.6 714.7q5-147.5 70.8-279.1Q178 274.4 368.3 241.8q82.5-16.2 166.7-23" style="fill:#0d1e21"/>
    <path d="M897.5 935.6q12 9.6 14.5 25 43.8 181.2 89.6 362.5c0 6-3.1 11.5-8.3 14.5q-40 6.3-79.2-4.1a489 489 0 0 1-16.6-64.6H793.3q1.2 8.3-4.2 12.5a71 71 0 0 0-14.6 33.3q-5.7-7.5-10.4 2.1 12.5 3.8 4.2 12.5-35.4 3.4-70.8 2A5873 5873 0 0 1 791.2 944a331 331 0 0 1 104.2 0q3-4.2 2-8.3" style="fill:#0c1e22"/>
    <path d="M897.5 935.6q.8 4-2.1 8.3a329 329 0 0 0-104.2 0 5873 5873 0 0 0-93.7 387.5q35.4 1.2 70.8-2 8.4-8.8-4.2-12.6 5-9.5 10.4-2a71 71 0 0 1 14.6-33.4 89 89 0 0 1-20.8 56.2 302 302 0 0 1-70.8 0c-5.2-3-8.4-8.5-8.4-14.5l89.6-366.7c1-7.3 4.7-14 10.4-18.8q54.2-3.3 108.4-2" style="fill:#101313"/>
    <path d="M1210 1014.7q-4.2.9-8.4-2 7.5-3 10.4-10.5a145 145 0 0 0-2-58.3 908 908 0 0 0-173 0 8817 8817 0 0 0 0 383.3c23.3 5.5 47.6 5.5 70.9 0q1.2-74.6 6.2-147.9a233 233 0 0 1 75 2q-36.6-2-70.8 4.3-5.2 72.8-6.3 145.8a79 79 0 0 1-41.6 8.3 48 48 0 0 1-41.7-12.5 8817 8817 0 0 1 0-383.3l6.3-6.3a1927 1927 0 0 1 179.1 0q7.1 36.3 2.1 73a9 9 0 0 1-6.2 4.1" style="fill:#0e1112"/>
    <path d="M651.6 1189.7q-.4 6.3 4.2 10.4a2763 2763 0 0 0-31.3 131.3l-10.4 10.4a319 319 0 0 1-87.5-2 2887 2887 0 0 1-52-187.6 9392 9392 0 0 1-45.9 179.2l-10.4 10.4q-40.4 5.4-79.2-2 37.5 1.1 75-2.2l10.4-10.4a2697 2697 0 0 1 50-200q26.3 97.5 50 195.9a29 29 0 0 0 10.5 14.5q37.5 4.2 75 0l10.4-10.4q13.7-70 31.2-137.5" style="fill:#efefe9"/>
    <path d="M1210 1014.7q-36.3 6.3-75 4.2a28 28 0 0 0-18.8 4.2 302 302 0 0 0 0 70.8q36.3 5 73 6.2 4.9 2.1 8.3 6.3a209 209 0 0 1 2 70.8q-4 4.6-10.4 4.2c-24.7-4.8-50-5.5-75-2q-5 73.6-6.2 147.8a154 154 0 0 1-70.9 0 8817 8817 0 0 1 0-383.3 899 899 0 0 1 173 0 145 145 0 0 1 2 58.3q-2.9 7.5-10.4 10.4 4.2 3 8.4 2.1" style="fill:#0c1f23"/>
    <path d="M843.3 1048q22 64.7 33.3 133.4a237 237 0 0 1-62.5-4.2 2065 2065 0 0 0 29.2-129.1" style="fill:#f5efdd"/>
    <path d="M651.6 1189.7a2383 2383 0 0 0-31.2 137.5l-10.4 10.4q-37.5 4.2-75 0c-5-3.6-8.6-8.7-10.5-14.5a7769 7769 0 0 0-50-195.9q-28.9 99-50 200l-10.4 10.4q-37.5 3.4-75 2.1a29 29 0 0 1-14.6-16.6 41342 41342 0 0 0-79.1-358.4 30 30 0 0 1 6.2-31.2q37.5-4.2 75 0 6.3 2.4 10.4 6.2 21 118.8 43.8 237.5 25-112.5 48-225 12.3-27.4 43.7-20.8l29.1 2 6.3 6.3a4933 4933 0 0 1 58.3 237.5q20-118.7 41.7-237.5l6.2-6.2q39.8-5 79.2 2 7.5 18.8 2 37.6a3988 3988 0 0 0-43.7 216.6" style="fill:#0c1d20"/>
    <path d="M1135 1018.9q38.7 2.1 75-4.2a9 9 0 0 0 6.2-4.1q5-37.1-2-73a1927 1927 0 0 0-179.2 0l-6.3 6.3a8817 8817 0 0 0 0 383.3 48 48 0 0 0 41.7 12.5q22.5 1.3 41.6-8.3 1-73 6.3-145.8 35.4-1.3 70.8 2a486 486 0 0 1-66.6 2.1q3.3 73.4-6.3 145.9-4.5 3.7-10.4 6.2a302 302 0 0 1-70.8 0l-10.5-10.4a9205 9205 0 0 1 0-391.7l10.5-10.4a1010 1010 0 0 1 183.3 4.2 81 81 0 0 1 8.3 41.6q8.3 60.9-52 48a182 182 0 0 1-39.6-4.2" style="fill:#edeeea"/>
    <path d="M843.3 556.4q20.8 69.1 33.3 141.7a237 237 0 0 1-62.5 4.1 1354 1354 0 0 1 29.2-145.8" style="fill:#f7f0de"/>
    <path d="M1068.3 302.2a2739 2739 0 0 0-554.2-18.7q-62.5 5-120.8 18.7a424 424 0 0 0-141.7 45.9q-7.5-2.1 0-6.3l25-12.5q135-50.4 279.2-54.2 154.2-4 308.3 0a1361 1361 0 0 1 212.5 25q-4 3-8.3 2.1" style="fill:#0c0e0e"/>
    <path d="M2514.1 1843.9a463 463 0 0 1-22.9 104.2q-5 65 4.2 129.1 13.4 3.4 6.2 12.5 9.1 16.3 20.9 31.3-6.3 1.6-8.4 6.2c-45.8-6-89.8-21.6-129.1-45.8a213 213 0 0 1-2.1-137.5q56.3-100 116.6-195.8 4.9-21.3 12.5-41.7 11 68.8 2.1 137.5" style="fill:#eb6322"/>
    <path d="M2718.3 1460.6q-31.3-76.6-60.4-154.2a546 546 0 0 1 22.9-368.8q-.9-4.7-4.2-8.3 16.3-13.8 0-10.4a646 646 0 0 0-168.7 208.3q-15.4 37.5-27.1 75c-20.3 64.6-26 133-16.7 200q-6.6 58.4-18.7 116.7a288 288 0 0 1-93.8 135.4q-64.5 28.8-70.8-41.7a356 356 0 0 0 14.6-127 763 763 0 0 0-79.2-166.7 433 433 0 0 1 6.3-266.7l8.3-12.5q105.4-292.4-131.3-483.3 8.8 54.2 20.9 108.3a96 96 0 0 1-2.1 48 75 75 0 0 1 8.3 14.5 166 166 0 0 0-6.2 62.5q-12.6 56.3-37.5 112.5a6965 6965 0 0 1-112.5 170.9 825 825 0 0 0-60.4 162.5c-10 58.3-41.2 111-87.5 147.9q-56.3 18.8-58.4-41.7a354 354 0 0 0-100-302 756 756 0 0 1-70.8 320.8 262 262 0 0 1-31.3 54.1q-8.7 12.5-18.7 12.5a1211 1211 0 0 0-81.3-129.1q-35.4-52.1-79.1-8.4a638 638 0 0 0-29.2 62.5 6987 6987 0 0 0-68.7 220.9l-12.5 10.4c-39.5 8-77.4 22-112.5 41.6a175 175 0 0 0-54.2 127.1q-89.2-15.4-179.2-29.1v-12.5q31.6 13.3 48-16.7a127 127 0 0 0 0-45.8 1352 1352 0 0 1-18.8-129.2q335-31.2 437.5-350l12.5-50a346 346 0 0 0 135.4-241.7q0-96.6-10.4-193.7a542 542 0 0 1 118.7-314.6 242 242 0 0 1 41.7-37.5q-1.2 60.8-12.5 120.8a394 394 0 0 0 16.7 166.7 3881 3881 0 0 1 75 170.8l12.5 129.2q20 43.8 64.6 23a213 213 0 0 0 68.7-143.8q4.2-68.8 0-137.5-25-147.6-4.2-295.9A525 525 0 0 1 2189.1 8.5a85 85 0 0 1 41.7-8.4 376 376 0 0 0-2 385.5l125 166.6a567 567 0 0 1 83.2 362.5 29 29 0 0 0 31.3 6.3q75.5-53 98-143.8 15-74.6 8.2-150a7025 7025 0 0 0-54.1-175 280 280 0 0 1 93.7-277 516 516 0 0 1 31.3-18.8q-8.3 49.5-10.4 100-1.3 97.5 52 179.2a1060 1060 0 0 1 141.7 208.3 383 383 0 0 1 27 216.7 3049 3049 0 0 1-60.3 245.8 174 174 0 0 0 29.1 133.3q66 58.8 129.2-4.1a250 250 0 0 0 50-125q-4.2-118.8-14.6-237.5a367 367 0 0 1 102.1-270.9q-14.5 146.3 41.7 283.4l125 233.3a524 524 0 0 1 37.5 337.5q-29.8 97-66.7 191.7a129 129 0 0 0 35.4 143.7 56 56 0 0 0 33.4 10.4 396 396 0 0 1 172.9-283.3q-13.4 59.6-25 120.8A608 608 0 0 0 3462 1819q23.8 86.7 39.6 175 38.4 244.2-106.2 445.8a3492 3492 0 0 1-137.5 150 263 263 0 0 0-60.4 135.4 71 71 0 0 0 25 58.4 38 38 0 0 0 43.7-14.6 492 492 0 0 1 158.3-162.5q-18 47.4-33.3 95.8a2817 2817 0 0 0-25 170.9 458 458 0 0 1-143.7 229.1 1304 1304 0 0 0-35.5-162.5l-16.6-33.3c-33-31.5-58.7-70-75-112.5q-16.5-87-25-175a646 646 0 0 0-48-145.8 321 321 0 0 0 239.6-262.5q5.5-48.4-4.1-95.9-20.9-16.6-33.4 8.4c2.3-73.8-21.3-146-66.6-204.2a429 429 0 0 0-60.4-62.5l4.1-8.3a159 159 0 0 1-20.8-50 454 454 0 0 1-31.3-304.2 1118 1118 0 0 1 60.5-152 429 429 0 0 0-181.3 177 564 564 0 0 0-31.2 79.2 477 477 0 0 0-20.9 87.5 558 558 0 0 1-77 204.1 647 647 0 0 1-60.5 48q-54 17.8-72.9-35.5a236 236 0 0 1 14.6-129.1q28-61.8 52-125c7.1-41.4 7.8-83.5 2.2-125a208 208 0 0 0-16.7-62.5" style="fill:#eb5b1e"/>
    <path d="M1543.3 1427.2q16.6 42.5 41.7 81.3a900 900 0 0 1 212.5 35.4 5750 5750 0 0 1 179.1-133.3 702 702 0 0 1 129.2-56.3 82 82 0 0 1 77 18.8q16.7 31.2 21 66.6 4 54.2 0 108.4a717 717 0 0 1-85.5 300 4952 4952 0 0 0 250 227 42 42 0 0 0 16.7 6.3 329 329 0 0 0 129.1 45.8l104.2 18.8a588 588 0 0 1 245.8 112.5q27.6-3.3 50-20.9a271 271 0 0 0 85.4-252A445 445 0 0 0 2933 1848q-13.4-48 35.4-54.2a400 400 0 0 1 129.2 62.5 429 429 0 0 1 60.4 62.5 317 317 0 0 1 66.6 204.2q12.6-25 33.4-8.4c6.3 31.6 7.7 63.9 4.1 95.9a321 321 0 0 1-239.5 262.5 655 655 0 0 1 47.9 145.8q8.3 88.3 25 175c16.4 42.6 42 81 75 112.5l16.6 33.3q23 80.2 35.5 162.5l31.2 195.9q25.8 146.6-118.7 172.9-135.4 4.2-270.9 0a67 67 0 0 1-52-48 209 209 0 0 1 77-175 930 930 0 0 1 81.3-37.4c9-76.2-25.8-151.3-89.6-193.8a977 977 0 0 1-158.3-83.3 454 454 0 0 1-83.4-95.9q-11.2-4-22.9-6.2-73.4 44.1-33.3 120.8 19.6 30 33.3 62.5a151 151 0 0 1 0 50 17149 17149 0 0 0-77 183.4l-52.1 112.5a95 95 0 0 1-64.6 47.9q-127.2 1.2-254.2 6.2-18.7 49.5-43.7 95.9a129 129 0 0 1-35.5 41.6q0-3.3-4.1-4.1a161 161 0 0 1-83.4 27q-148.3 6.3-295.8-6.2-7.5 0-12.5 4.2a71 71 0 0 1-50-68.8q20.9-181.2 200-212.5a147 147 0 0 0 29.2-43.7 913 913 0 0 0 58.3-237.5 546 546 0 0 1-331.2-54.2A3979 3979 0 0 0 1410 3248a6914 6914 0 0 0-110.4 175 154 154 0 0 1-148 72.9 2604 2604 0 0 1-208.3 0 367 367 0 0 1-95.8-16.7 75 75 0 0 1-27.1-85.4A190 190 0 0 1 980.8 3223q45.8 5.4 91.7 2a145 145 0 0 0 27-31.2 2054 2054 0 0 0 185.5-475 829 829 0 0 1-179.2-20.8 192 192 0 0 1-93.7-87.5c-9-22.5-11.9-47-8.4-70.9q8.4-13.3 18.8-25a163 163 0 0 1 10.4-125 35 35 0 0 1 39.6-14.6 169 169 0 0 1 35.4 43.8 621 621 0 0 0 58.3-62.5q15-33.3 31.3-66.7-10.5-18-16.7-37.5-16.7 35-54.2 23a154 154 0 0 1-56.2-73q-36.3 55.9-79.2 4.2l-12.5 54.2a29 29 0 0 1-10.4 14.5q-56.3 5.4-85.4-43.7a264 264 0 0 1-29.2-70.8 217 217 0 0 1-87.5-204.2q10.5-45 23-89.6-25-102 75-137.5 31.2-7.5 62.4-6.2 90 13.7 179.2 29.1 1.2-75 54.2-127c35.1-19.6 73-33.7 112.5-41.7l12.5-10.4a6987 6987 0 0 1 68.7-220.9 638 638 0 0 1 29.2-62.5q43.7-43.7 79.2 8.4 45 62.5 81.2 129.1" style="fill:#0d1f23"/>
    <path d="M3022.5 1881.4q202.8 126.3 114.5 350a400 400 0 0 1-31.2 37.5 138 138 0 0 0 93.7-50q-43.7 154.2-200 195.8a1589 1589 0 0 0-77-97.9 325 325 0 0 0 139.5-227q20-112.5-39.5-208.4" style="fill:#6072a1"/>
    <path d="M1147.5 2123h16.6a2056 2056 0 0 1-10.4 91.7 44 44 0 0 1-10.4 25 216 216 0 0 1-58.3-104.1q31.7-3.5 62.5-12.5" style="fill:#f3ebde"/>
    <path d="M1426.6 2123q5-6.2 12.5-2a125 125 0 0 1 41.7 35.4q-8.3 5.8-16.7-2a412 412 0 0 1-37.5-31.3" style="fill:#ebeae5"/>
    <path d="M993.3 2131.4a237 237 0 0 1 62.5 4.2q-6 27.8-20.8 52-11.6 1.3-18.8-10.4a137 137 0 0 1-22.9-45.8" style="fill:#f4ede0"/>
    <path d="M1301.6 2085.6q51.3-.8 100 14.5a131 131 0 0 1-54.1 60.5 415 415 0 0 1-52.1-62.5q-4.7.9-8.4 4.1-33.7 99.6-93.7 14.6 54.2-19.6 108.3-31.2" style="fill:#f1e9dc"/>
    <path d="M826.6 1927.2q6.3-.7 12.5 2.1l52.1 43.8q6.3 35.4 4.2 70.8a57 57 0 0 1-37.5 41.7q-10.5-3.8-16.7-12.5c-29-43-34.6-98-14.6-145.9" style="fill:#5f71a0"/>
    <path d="M889.1 1785.6q60.4-8 112.5 22.9 40.5 30.7 2.1 64.6A83 83 0 0 0 935 1821a166 166 0 0 0-68.8 10.4q-11.2-2.5-22.9-4.2a24 24 0 0 1 8.3-22.9z" style="fill:#6072a2"/>
    <path d="M1151.6 1731.4q16 15 25 35.4-39.6 2.1-25-35.4" style="fill:#ebeae3"/>
    <path d="M1414.1 1360.6q22.2 0 31.3 20.8 30.4 62.5 56.2 127-72.6 14-145.8 25 18-52.4 31.2-106.2a319 319 0 0 1 27.1-66.6" style="fill:#6173a3"/>
    <path d="M918.3 2127.2h37.5l-6.3 100a104 104 0 0 1-31.2-100" style="fill:#f6f2ea"/>
    <path d="M1460 2264.7q103.4-5 37.5 77.1l-33.4 4.2q-20 22.5-35.4 47.9-42-22.1-70.8 16.7a383 383 0 0 0-25 58.3 593 593 0 0 0-41.7-70.8q-32.5-18.8-58.3 8.3-15 23.7-27.1 50a204 204 0 0 1 75-168.8q20-16.6 41.7-4.1 3.3 3.6 4.1 8.3a442 442 0 0 0-27 64.6 74 74 0 0 0 2 41.7 204 204 0 0 1 158.4-133.4" style="fill:#dd3f1b"/>
    <path d="M1476.6 2385.6q6.3-.9 12.5 2-10.5 15.9-22.9 31.3c.5-11.8 4-23.4 10.4-33.3" style="fill:#e4e5e2"/>
    <path d="M1401.6 2423a72 72 0 0 1 33.4 23 583 583 0 0 1-50 31.2 67 67 0 0 1 16.6-54.1" style="fill:#efe9de"/>
    <path d="M1260 2435.6q16.2 4.6 22.9 20.8 18.8 29.2 31.2 62.5a485 485 0 0 1-62.5 20.8q-10.4-53.3 8.4-104.1" style="fill:#f2ebde"/>
    <path d="M1060 2423q34.5 43.8 50 100 5.3 6.4 12.5 2.1a324 324 0 0 1 29.1-35.4c6-4.4 14-5.2 20.9-2a64 64 0 0 1 37.5 56.2q-72-2-141.7-20.8a117 117 0 0 1-8.3-100" style="fill:#efe9dc"/>
    <path d="M2130.8 1402.2h12.5a771 771 0 0 1-73 408.4 454 454 0 0 1-64.5 81.2q29.1 71.2 43.7 148a441 441 0 0 0 16.7-120.9 50 50 0 0 1 18.8-20.8 12929 12929 0 0 1 200 189.5c68 56.9 150 94.3 237.5 108.4q405 44.1 489.5 443.7 8.3 77.5 20.9 154.2a320 320 0 0 0 33.3 79.2q37.5 43.7 70.8 91.6a1811 1811 0 0 1 58.4 404.2 83 83 0 0 1-48 39.6q-37.5 7.5-75 6.2a154 154 0 0 1 29.2-108.3l-6.2-4.2a138 138 0 0 0-73 112.5H2960q-1-23 2-45.8 9.3-25 14.6-50-24.9 0-39.6 20.8a192 192 0 0 0-27 70.9h-37.5q0-112.6 108.3-143.8 56.3-1.3 112.5-6.2-22.5-17-48-29.2a458 458 0 0 0-62.4-200l-43.8-43.8q-81.2-42.4-158.3-91.6a550 550 0 0 1-123-156.3q-27.5-86.7-50-175a83 83 0 0 0-18.7-37.5q-6.2 3-10.4 8.4-6.3 94.5 10.4 187.5l-4.1 8.3q-109.5 45.5-216.7 95.8a75 75 0 0 1-18.8-37.5l-12.5-100a166 166 0 0 0-31.2-62.5q-7 58.4-8.3 116.7 6.2 73.4 10.4 145.8a46901 46901 0 0 1-166.7 437.5 1879 1879 0 0 1-70.8 158.4 86 86 0 0 1-52.1 35.4q-45 1.2-89.6 6.2a205 205 0 0 1 0-58.3 755 755 0 0 0 20.8-75 146 146 0 0 0-72.9 131.2 302 302 0 0 1-70.8 0l-6.3-6.2c-8.8-41.6 2.9-85 31.3-116.7a33 33 0 0 0-33.3 6.3 133 133 0 0 0-50 110.4 212 212 0 0 1-41.7-4.2q-5.4-120 108.3-156.2a4974 4974 0 0 1 204.2-8.4q-17.1-15-37.5-25a554 554 0 0 1-66.7-18.7q19.6-40.8 35.4-83.3 32.5-128.8 52.1-260.5-5.4-51.2-39.6-89.5l-70.8-70.9a371 371 0 0 0 43.8 120.9c-51 6-102.2-9-141.7-41.7q-3 12.5 6.2 25 15.4 21.6 35.5 39.6a321 321 0 0 1-260.5-98 308 308 0 0 1-22.9-33.3l2.1-4.1a279 279 0 0 0 135.4 70.8l4.2-4.2c-41-45.2-60-106.2-52-166.6a321 321 0 0 1 106.2-202.1q69.6-56.2 145.8-104.2c70-58.3 103.4-150 87.5-239.6h-12.5a288 288 0 0 1-158.3 202.1 1971 1971 0 0 0-216.7 108.3q-89.5 69.8-183.3 133.4a371 371 0 0 1-266.7 41.6 125 125 0 0 1-85.4-72.9q-4.6-7 2-12.5a396 396 0 0 0 325-22.9 1176 1176 0 0 1 95.9-66.7q135-117.9 77-289.5-75.3-168.7-260.3-139.6l-175 37.5a400 400 0 0 1-150-12.5 96 96 0 0 1-29.2-112.5 274 274 0 0 0 110.4-68.8c7.4-12.8 12.3-27 14.6-41.6a189 189 0 0 0-23-62.5q145.9 20.7 281.3 79.1l8.4-4.1q-8-13.7-18.8-25-4.1-5.1 2-8.4a214 214 0 0 0 62.6 23q67.5 118.7 187.5 54.1a125 125 0 0 0 25-150q24.2-21.5 54.2-33.3a115 115 0 0 0-91.7-8.4 629 629 0 0 0-137.5 66.7q-89.6 45.9-77-52 32.4-84.3-29.3-12.6a537 537 0 0 0-33.3 54.2q-6.6 8.7-16.7 12.5a229 229 0 0 1-97.9-93.8 109 109 0 0 1 62.5-41.6l37.5-4.2a380 380 0 0 1 91.7-54.2 692 692 0 0 1 350-8.3 222 222 0 0 1 58.3 20.8l8.4 18.8a563 563 0 0 0 141.6-98q80.3-55 166.7-100 26.3-7.5 50-18.7" style="fill:#6072a1"/>
    <path d="M1618.3 2143.9q68 68.7 52 166.7a225 225 0 0 1-16.6 41.6q11.3-108.8-35.4-208.3" style="fill:#0f1b1e"/>
    <path d="M1551.6 1773q8 0 10.4 8.4 14.2 72.5-52 102a68 68 0 0 1-45.9-6.2q59.6-20.9 45.9-81.2a300 300 0 0 0 41.6-23" style="fill:#f2ebdf"/>
    <path d="M2039.1 1593.9h12.5a263 263 0 0 1-81.2 225 846 846 0 0 0-85.4-87.5 7169 7169 0 0 1 154.1-137.5" style="fill:#0d1f22"/>
    <path d="M955.8 3106.4a308 308 0 0 0-83.3-114.6q-73-51-150-95.8-180-127.5-135.5-343.8 25 48 64.6 85.4 45.9 32.1 85.4-6.2a144 144 0 0 0-20.8-120.8 1143 1143 0 0 0-95.8-129.2 371 371 0 0 1-54.2-266.7 371 371 0 0 1 50-137.5q10.5 94.6 54.2 179.2A871 871 0 0 0 837 2339.7a346 346 0 0 1 91.7 191.7q4.5 92 16.7 183.3a179 179 0 0 0 56.2 91.7q73.8 33.3 102.1-41.7a486 486 0 0 0 2.1-66.6 829 829 0 0 0 179.2 20.8 2054 2054 0 0 1-185.5 475q-11.2 17.5-27 31.2a482 482 0 0 1-91.7-2 417 417 0 0 0-25-116.7M2889.1 3248h-350a10297 10297 0 0 1 77.1-183.4 151 151 0 0 0 0-50 408 408 0 0 0-33.3-62.5q-40-76.6 33.3-120.8a97 97 0 0 1 23 6.2c23 35.7 51.1 68 83.3 95.9a977 977 0 0 0 158.3 83.3q99.6 70.8 89.6 193.8a930 930 0 0 0-81.3 37.5" style="fill:#eb5b1e"/>
    <path d="M2326.6 3010.6a175 175 0 0 1 56.3 45.8 579 579 0 0 1-45.9 125 50 50 0 0 1-18.7 14.6 211 211 0 0 0-62.5 10.4q31.2-97.5 70.8-195.8" style="fill:#eb6422"/>
    <path d="M1872.5 3248H1410q88.4-150 189.5-291.6a546 546 0 0 0 331.3 54.2 917 917 0 0 1-58.3 237.5" style="fill:#eb5b1e"/>
    <path d="M2380.8 3289.7q4.2-.7 8.3 2.1a158 158 0 0 0-20.8 60.4h-25q0-18.7 10.4-33.3a298 298 0 0 0 27.1-29.2" style="fill:#6275a8"/>
    <path d="M1155.8 3435.6q-36.3-6.3-75-4.2 3-18.7 4.2-37.5 20.8 1.2 4.1-8.3l10.4-4.2 6.3 6.2a124 124 0 0 1-16.7 23q15.8-2.5 20.9-23a96 96 0 0 0-6.3-14.5q-12.4 3.3 0-8.4a48 48 0 0 1 12.5 33.4q2.1-12.5 6.3-23-3-2.9-4.2-6.2a66 66 0 0 0 20.8-33.3q10.4-12.6 23-4.2 6.2-15 16.6-16.7a96 96 0 0 1 8.3 20.9 42 42 0 0 1 31.3-35.5q-6.2-9-10.4-18.7-10.5 1.3-18.8 6.2 12 1.3 20.9 8.4a43 43 0 0 0-10.5 6.2 125 125 0 0 1-39.5-27q-6.3-4.2-8.4 2-13.6-7.9-25-18.7a561 561 0 0 0 43.8-64.6 2583 2583 0 0 0 166.6-429.2 350 350 0 0 1 58.4 350 1246 1246 0 0 1-166.7 304.2 104 104 0 0 1-72.9 16.7" style="fill:#466190"/>
    <path d="M2285 3289.7q3.3 0 4.1 4.2a113 113 0 0 0-25 54.2c-6.1 4-13.6 5.4-20.8 4.1 3.8-26 19.1-49 41.7-62.5" style="fill:#677bac"/>
    <path d="M1151.6 3277.2q2.1-6.2 8.4-2a127 127 0 0 0 39.5 27q5.1-3.8 10.5-6.2c-6-4.7-13.3-7.5-20.9-8.4a47 47 0 0 1 18.8-6.2q4.2 9.6 10.4 18.7a42 42 0 0 0-31.3 35.5q-2.9-11-8.3-20.9-10.5 1.7-16.7 16.7-12.5-8.4-22.9 4.2a66 66 0 0 1-20.8 33.3q1.2 3.3 4.2 6.2-4.2 11-6.3 23 0-19.5-12.5-33.4-12.4 11.7 0 8.4a96 96 0 0 1 6.3 14.5q-5 21-20.9 23 9.6-10.5 16.7-23l-6.3-6.2-10.4 4.2q16.7 9.5-4.1 8.3-1.3 18.7-4.2 37.5 38.7-2.1 75 4.2h-79.2a201 201 0 0 1 29.2-108.4l-8.3-4.1a121 121 0 0 0-56.3 58.3 150 150 0 0 0-10.4 62.5q-35.4-3.3-70.8-4.2-8.4-54 27-95.8l6.3-16.7-6.3-4.1a125 125 0 0 0-72.9 108.3 76 76 0 0 1-35.4-4.2 146 146 0 0 1 77.1-139.6c35.7-14 74.6-18.3 112.5-12.5q54.2 15 108.3 31.3l4.2-4.2z" style="fill:#556c9b"/>
    <path d="M2089.1 3552.2a171 171 0 0 1-70.8 27.1 14724 14724 0 0 0-191.7 6.3q-67.1-1.3-133.3-12.5 5-4.2 12.5-4.2 147.5 12.5 295.8 6.2a161 161 0 0 0 83.4-27q4 .9 4.1 4.1" style="fill:#0b0e0e"/>
</svg>
